<svg width="1422" height="82" viewBox="0 0 1422 82" fill="none" xmlns="http://www.w3.org/2000/svg">
<path d="M190.984 42H187.624L180.016 30.504V42H176.656V25.224H180.016L187.624 36.744V25.224H190.984V42ZM206.664 35.064C206.664 35.544 206.632 35.976 206.568 36.36H196.848C196.928 37.32 197.264 38.072 197.856 38.616C198.448 39.16 199.176 39.432 200.04 39.432C201.288 39.432 202.176 38.896 202.704 37.824H206.328C205.944 39.104 205.208 40.16 204.12 40.992C203.032 41.808 201.696 42.216 200.112 42.216C198.832 42.216 197.68 41.936 196.656 41.376C195.648 40.8 194.856 39.992 194.28 38.952C193.72 37.912 193.44 36.712 193.44 35.352C193.44 33.976 193.72 32.768 194.28 31.728C194.84 30.688 195.624 29.888 196.632 29.328C197.64 28.768 198.8 28.488 200.112 28.488C201.376 28.488 202.504 28.76 203.496 29.304C204.504 29.848 205.28 30.624 205.824 31.632C206.384 32.624 206.664 33.768 206.664 35.064ZM203.184 34.104C203.168 33.24 202.856 32.552 202.248 32.04C201.64 31.512 200.896 31.248 200.016 31.248C199.184 31.248 198.48 31.504 197.904 32.016C197.344 32.512 197 33.208 196.872 34.104H203.184ZM213.029 31.464V37.896C213.029 38.344 213.133 38.672 213.341 38.88C213.565 39.072 213.933 39.168 214.445 39.168H216.005V42H213.893C211.061 42 209.645 40.624 209.645 37.872V31.464H208.061V28.704H209.645V25.416H213.029V28.704H216.005V31.464H213.029ZM221.782 30.648C222.214 30.008 222.806 29.488 223.558 29.088C224.326 28.688 225.198 28.488 226.174 28.488C227.31 28.488 228.334 28.768 229.246 29.328C230.174 29.888 230.902 30.688 231.43 31.728C231.974 32.752 232.246 33.944 232.246 35.304C232.246 36.664 231.974 37.872 231.43 38.928C230.902 39.968 230.174 40.776 229.246 41.352C228.334 41.928 227.31 42.216 226.174 42.216C225.182 42.216 224.31 42.024 223.558 41.64C222.822 41.24 222.23 40.728 221.782 40.104V42H218.422V24.24H221.782V30.648ZM228.814 35.304C228.814 34.504 228.646 33.816 228.31 33.24C227.99 32.648 227.558 32.2 227.014 31.896C226.486 31.592 225.91 31.44 225.286 31.44C224.678 31.44 224.102 31.6 223.558 31.92C223.03 32.224 222.598 32.672 222.262 33.264C221.942 33.856 221.782 34.552 221.782 35.352C221.782 36.152 221.942 36.848 222.262 37.44C222.598 38.032 223.03 38.488 223.558 38.808C224.102 39.112 224.678 39.264 225.286 39.264C225.91 39.264 226.486 39.104 227.014 38.784C227.558 38.464 227.99 38.008 228.31 37.416C228.646 36.824 228.814 36.12 228.814 35.304ZM240.591 42.216C239.311 42.216 238.159 41.936 237.135 41.376C236.111 40.8 235.303 39.992 234.711 38.952C234.135 37.912 233.847 36.712 233.847 35.352C233.847 33.992 234.143 32.792 234.735 31.752C235.343 30.712 236.167 29.912 237.207 29.352C238.247 28.776 239.407 28.488 240.687 28.488C241.967 28.488 243.127 28.776 244.167 29.352C245.207 29.912 246.023 30.712 246.615 31.752C247.223 32.792 247.527 33.992 247.527 35.352C247.527 36.712 247.215 37.912 246.591 38.952C245.983 39.992 245.151 40.8 244.095 41.376C243.055 41.936 241.887 42.216 240.591 42.216ZM240.591 39.288C241.199 39.288 241.767 39.144 242.295 38.856C242.839 38.552 243.271 38.104 243.591 37.512C243.911 36.92 244.071 36.2 244.071 35.352C244.071 34.088 243.735 33.12 243.063 32.448C242.407 31.76 241.599 31.416 240.639 31.416C239.679 31.416 238.871 31.76 238.215 32.448C237.575 33.12 237.255 34.088 237.255 35.352C237.255 36.616 237.567 37.592 238.191 38.28C238.831 38.952 239.631 39.288 240.591 39.288ZM255.896 42.216C254.616 42.216 253.464 41.936 252.44 41.376C251.416 40.8 250.608 39.992 250.016 38.952C249.44 37.912 249.152 36.712 249.152 35.352C249.152 33.992 249.448 32.792 250.04 31.752C250.648 30.712 251.472 29.912 252.512 29.352C253.552 28.776 254.712 28.488 255.992 28.488C257.272 28.488 258.432 28.776 259.472 29.352C260.512 29.912 261.328 30.712 261.92 31.752C262.528 32.792 262.832 33.992 262.832 35.352C262.832 36.712 262.52 37.912 261.896 38.952C261.288 39.992 260.456 40.8 259.4 41.376C258.36 41.936 257.192 42.216 255.896 42.216ZM255.896 39.288C256.504 39.288 257.072 39.144 257.6 38.856C258.144 38.552 258.576 38.104 258.896 37.512C259.216 36.92 259.376 36.2 259.376 35.352C259.376 34.088 259.04 33.12 258.368 32.448C257.712 31.76 256.904 31.416 255.944 31.416C254.984 31.416 254.176 31.76 253.52 32.448C252.88 33.12 252.56 34.088 252.56 35.352C252.56 36.616 252.872 37.592 253.496 38.28C254.136 38.952 254.936 39.288 255.896 39.288ZM273.169 42L268.657 36.336V42H265.297V24.24H268.657V34.344L273.121 28.704H277.489L271.633 35.376L277.537 42H273.169Z" fill="#2B2B39"/>
<path d="M169.001 33.9998C169.001 43.3887 161.39 50.9998 152.001 50.9998C148.061 50.9998 144.434 49.6592 141.551 47.4093L159.783 29.1768C160.653 30.5773 161.155 32.2292 161.155 33.9998C161.155 38.1925 158.336 41.7269 154.49 42.8111C153.917 42.0652 153.015 41.5844 152.001 41.5844C150.268 41.5844 148.863 42.9896 148.863 44.7229C148.863 46.4562 150.268 47.8613 152.001 47.8613C153.299 47.8613 154.413 47.0738 154.89 45.9507C160.285 44.6511 164.294 39.7935 164.294 33.9998C164.294 31.3617 163.461 28.9159 162.046 26.9136L165.411 23.5493C167.661 26.4322 169.001 30.0595 169.001 33.9998Z" fill="#FFAF2E"/>
<path d="M141.955 41.0862L138.591 44.4505C136.341 41.5676 135 37.9403 135 34C135 24.6112 142.611 17 152 17C155.94 17 159.568 18.3406 162.45 20.5905L144.218 38.823C143.348 37.4225 142.846 35.7708 142.846 34C142.846 29.8073 145.665 26.2729 149.511 25.1887C150.085 25.9346 150.986 26.4154 152 26.4154C153.733 26.4154 155.138 25.0102 155.138 23.2769C155.138 21.5436 153.733 20.1385 152 20.1385C150.702 20.1385 149.589 20.926 149.111 22.0491C143.716 23.3487 139.708 28.2063 139.708 34C139.708 36.6379 140.54 39.0838 141.955 41.0862Z" fill="#F04148"/>
<circle cx="151.999" cy="23.2769" r="1.30769" fill="#F04148"/>
<circle cx="151.999" cy="44.7232" r="1.30769" fill="#FFAF2E"/>
<path d="M351.004 39H352.849V34.6747H357.567V39H359.416V28.8182H357.567V33.1286H352.849V28.8182H351.004V39ZM364.814 39.1491C367.051 39.1491 368.473 37.5732 368.473 35.2116C368.473 32.8452 367.051 31.2642 364.814 31.2642C362.576 31.2642 361.155 32.8452 361.155 35.2116C361.155 37.5732 362.576 39.1491 364.814 39.1491ZM364.824 37.7074C363.586 37.7074 362.979 36.6037 362.979 35.2067C362.979 33.8097 363.586 32.6911 364.824 32.6911C366.042 32.6911 366.648 33.8097 366.648 35.2067C366.648 36.6037 366.042 37.7074 364.824 37.7074ZM370.14 39H371.94V34.3565C371.94 33.4169 372.566 32.7805 373.342 32.7805C374.103 32.7805 374.625 33.2926 374.625 34.0781V39H376.39V34.2372C376.39 33.3771 376.902 32.7805 377.772 32.7805C378.498 32.7805 379.074 33.2081 379.074 34.1527V39H380.879V33.8743C380.879 32.169 379.895 31.2642 378.493 31.2642C377.384 31.2642 376.539 31.8111 376.201 32.6612H376.121C375.828 31.7962 375.087 31.2642 374.058 31.2642C373.034 31.2642 372.268 31.7912 371.95 32.6612H371.86V31.3636H370.14V39ZM386.225 39.1491C388.005 39.1491 389.228 38.2791 389.546 36.9517L387.866 36.7628C387.622 37.4091 387.026 37.7472 386.25 37.7472C385.087 37.7472 384.316 36.9815 384.301 35.674H389.621V35.1222C389.621 32.4425 388.01 31.2642 386.131 31.2642C383.943 31.2642 382.517 32.87 382.517 35.2266C382.517 37.6229 383.924 39.1491 386.225 39.1491ZM384.306 34.4609C384.361 33.4865 385.082 32.6662 386.156 32.6662C387.19 32.6662 387.886 33.4219 387.896 34.4609H384.306Z" fill="#2B2B39"/>
<path d="M432.575 32.1293C432.227 29.9517 430.522 28.679 428.369 28.679C425.734 28.679 423.79 30.6527 423.79 33.9091C423.79 37.1655 425.724 39.1392 428.369 39.1392C430.607 39.1392 432.242 37.7372 432.575 35.7237L431.024 35.7188C430.761 37.0213 429.667 37.7372 428.379 37.7372C426.634 37.7372 425.317 36.3999 425.317 33.9091C425.317 31.4382 426.629 30.081 428.384 30.081C429.682 30.081 430.771 30.8118 431.024 32.1293H432.575ZM437.651 39.1541C439.804 39.1541 441.21 37.5781 441.21 35.2166C441.21 32.8402 439.804 31.2642 437.651 31.2642C435.498 31.2642 434.091 32.8402 434.091 35.2166C434.091 37.5781 435.498 39.1541 437.651 39.1541ZM437.656 37.9062C436.249 37.9062 435.593 36.6783 435.593 35.2116C435.593 33.75 436.249 32.5071 437.656 32.5071C439.053 32.5071 439.709 33.75 439.709 35.2116C439.709 36.6783 439.053 37.9062 437.656 37.9062ZM443.01 39H444.496V34.2919C444.496 33.2628 445.217 32.5469 446.062 32.5469C446.888 32.5469 447.459 33.0938 447.459 33.924V39H448.941V34.1328C448.941 33.2131 449.503 32.5469 450.472 32.5469C451.258 32.5469 451.904 32.9844 451.904 34.0185V39H453.39V33.8793C453.39 32.1342 452.416 31.2642 451.034 31.2642C449.935 31.2642 449.11 31.7912 448.742 32.6065H448.662C448.329 31.7713 447.628 31.2642 446.609 31.2642C445.6 31.2642 444.849 31.7663 444.531 32.6065H444.437V31.3636H443.01V39ZM455.523 39H457.009V34.2919C457.009 33.2628 457.73 32.5469 458.575 32.5469C459.401 32.5469 459.972 33.0938 459.972 33.924V39H461.454V34.1328C461.454 33.2131 462.016 32.5469 462.985 32.5469C463.771 32.5469 464.417 32.9844 464.417 34.0185V39H465.903V33.8793C465.903 32.1342 464.929 31.2642 463.547 31.2642C462.448 31.2642 461.623 31.7912 461.255 32.6065H461.176C460.842 31.7713 460.141 31.2642 459.122 31.2642C458.113 31.2642 457.362 31.7663 457.044 32.6065H456.95V31.3636H455.523V39ZM472.873 35.8331C472.878 37.1307 471.914 37.7472 471.078 37.7472C470.159 37.7472 469.522 37.081 469.522 36.0419V31.3636H468.036V36.2209C468.036 38.1151 469.075 39.0994 470.542 39.0994C471.69 39.0994 472.471 38.4929 472.823 37.6776H472.903V39H474.365V31.3636H472.873V35.8331ZM477.989 34.4659C477.989 33.2479 478.734 32.5518 479.768 32.5518C480.778 32.5518 481.389 33.2131 481.389 34.3217V39H482.876V34.1428C482.876 32.2536 481.837 31.2642 480.275 31.2642C479.127 31.2642 478.376 31.7962 478.023 32.6065H477.929V31.3636H476.502V39H477.989V34.4659ZM485.009 39H486.496V31.3636H485.009V39ZM485.76 30.1854C486.272 30.1854 486.7 29.7876 486.7 29.3004C486.7 28.8132 486.272 28.4105 485.76 28.4105C485.243 28.4105 484.82 28.8132 484.82 29.3004C484.82 29.7876 485.243 30.1854 485.76 30.1854ZM492.2 31.3636H490.634V29.5341H489.148V31.3636H488.029V32.5568H489.148V37.0661C489.143 38.4531 490.202 39.1243 491.375 39.0994C491.847 39.0945 492.165 39.005 492.339 38.9403L492.071 37.7124C491.971 37.7322 491.788 37.777 491.549 37.777C491.067 37.777 490.634 37.6179 490.634 36.7578V32.5568H492.2V31.3636ZM494.924 41.8636C496.152 41.8636 496.928 41.2223 497.37 40.0192L500.527 31.3786L498.921 31.3636L496.987 37.2898H496.908L494.974 31.3636H493.383L496.177 39.0994L495.993 39.6065C495.615 40.6207 495.083 40.7053 494.268 40.4815L493.91 41.6996C494.089 41.7791 494.477 41.8636 494.924 41.8636Z" fill="#656464"/>
<path d="M513.312 33.375L510.5 36.1875L507.688 33.375" stroke="#656464" stroke-width="1.2" stroke-linecap="round" stroke-linejoin="round"/>
<path d="M548.119 39H552.021C554.388 39 555.457 37.8217 555.457 36.2607C555.457 34.6847 554.353 33.7947 553.344 33.7401V33.6406C554.278 33.402 555.059 32.7656 555.059 31.4929C555.059 29.9865 554.015 28.8182 551.847 28.8182H548.119V39ZM549.655 37.6825V34.4212H551.927C553.16 34.4212 553.93 35.2166 553.93 36.1861C553.93 37.0412 553.349 37.6825 551.872 37.6825H549.655ZM549.655 33.223V30.1257H551.753C552.971 30.1257 553.553 30.767 553.553 31.6122C553.553 32.5966 552.747 33.223 551.713 33.223H549.655ZM558.786 28.8182H557.299V39H558.786V28.8182ZM564.142 39.1541C566.295 39.1541 567.702 37.5781 567.702 35.2166C567.702 32.8402 566.295 31.2642 564.142 31.2642C561.99 31.2642 560.583 32.8402 560.583 35.2166C560.583 37.5781 561.99 39.1541 564.142 39.1541ZM564.147 37.9062C562.74 37.9062 562.084 36.6783 562.084 35.2116C562.084 33.75 562.74 32.5071 564.147 32.5071C565.544 32.5071 566.201 33.75 566.201 35.2116C566.201 36.6783 565.544 37.9062 564.147 37.9062ZM572.703 42.0227C574.647 42.0227 576.148 41.1328 576.148 39.169V31.3636H574.692V32.6016H574.582C574.319 32.1293 573.792 31.2642 572.37 31.2642C570.525 31.2642 569.168 32.7209 569.168 35.152C569.168 37.5881 570.555 38.8857 572.36 38.8857C573.762 38.8857 574.304 38.0952 574.572 37.608H574.667V39.1094C574.667 40.3075 573.846 40.8246 572.718 40.8246C571.48 40.8246 570.998 40.2031 570.734 39.7656L569.457 40.2926C569.859 41.2273 570.878 42.0227 572.703 42.0227ZM572.688 37.6527C571.361 37.6527 570.67 36.6335 570.67 35.1321C570.67 33.6655 571.346 32.527 572.688 32.527C573.986 32.527 574.682 33.5859 574.682 35.1321C574.682 36.7081 573.971 37.6527 572.688 37.6527Z" fill="#656464"/>
<path d="M611.119 39H617.562V37.6776H612.655V34.5604H617.169V33.2429H612.655V30.1406H617.502V28.8182H611.119V39ZM626.108 31.3636H624.512L622.583 37.2401H622.503L620.569 31.3636H618.973L621.747 39H623.338L626.108 31.3636ZM630.662 39.1541C632.328 39.1541 633.506 38.3338 633.844 37.0909L632.437 36.8374C632.169 37.5582 631.522 37.9261 630.677 37.9261C629.404 37.9261 628.549 37.1009 628.51 35.6293H633.939V35.1023C633.939 32.343 632.288 31.2642 630.558 31.2642C628.43 31.2642 627.028 32.8849 627.028 35.2315C627.028 37.603 628.41 39.1541 630.662 39.1541ZM628.515 34.5156C628.574 33.4318 629.36 32.4922 630.568 32.4922C631.721 32.4922 632.477 33.3473 632.482 34.5156H628.515ZM637.214 34.4659C637.214 33.2479 637.96 32.5518 638.994 32.5518C640.003 32.5518 640.615 33.2131 640.615 34.3217V39H642.101V34.1428C642.101 32.2536 641.062 31.2642 639.501 31.2642C638.353 31.2642 637.602 31.7962 637.249 32.6065H637.155V31.3636H635.728V39H637.214V34.4659ZM647.8 31.3636H646.234V29.5341H644.747V31.3636H643.629V32.5568H644.747V37.0661C644.742 38.4531 645.801 39.1243 646.974 39.0994C647.447 39.0945 647.765 39.005 647.939 38.9403L647.67 37.7124C647.571 37.7322 647.387 37.777 647.148 37.777C646.666 37.777 646.234 37.6179 646.234 36.7578V32.5568H647.8V31.3636ZM655.183 33.228C654.875 32.0398 653.945 31.2642 652.295 31.2642C650.57 31.2642 649.347 32.174 649.347 33.5263C649.347 34.6101 650.003 35.331 651.435 35.6491L652.727 35.9325C653.463 36.0966 653.806 36.4247 653.806 36.902C653.806 37.4936 653.175 37.956 652.2 37.956C651.31 37.956 650.739 37.5732 650.56 36.8224L649.123 37.0412C649.372 38.3935 650.495 39.1541 652.21 39.1541C654.055 39.1541 655.332 38.1747 655.332 36.7926C655.332 35.7138 654.646 35.0476 653.244 34.7244L652.031 34.446C651.191 34.2472 650.828 33.9638 650.833 33.4467C650.828 32.8601 651.465 32.4425 652.31 32.4425C653.234 32.4425 653.662 32.9545 653.836 33.4666L655.183 33.228Z" fill="#656464"/>
<g filter="url(#filter0_d_0_481)">
<rect x="1182" y="9" width="123" height="50" rx="14" fill="#217BF4"/>
</g>
<path d="M1227.35 38H1232.78V36.6747H1228.93V29.2727H1227.35V38ZM1236.94 38.1278C1238.85 38.1278 1240.07 36.777 1240.07 34.7528C1240.07 32.7244 1238.85 31.3693 1236.94 31.3693C1235.02 31.3693 1233.8 32.7244 1233.8 34.7528C1233.8 36.777 1235.02 38.1278 1236.94 38.1278ZM1236.95 36.892C1235.88 36.892 1235.36 35.946 1235.36 34.7486C1235.36 33.5511 1235.88 32.5923 1236.95 32.5923C1237.99 32.5923 1238.51 33.5511 1238.51 34.7486C1238.51 35.946 1237.99 36.892 1236.95 36.892ZM1244.23 40.5909C1246 40.5909 1247.3 39.7812 1247.3 38.1065V31.4545H1245.78V32.5369H1245.69C1245.46 32.0639 1244.97 31.3693 1243.82 31.3693C1242.3 31.3693 1241.11 32.554 1241.11 34.706C1241.11 36.8409 1242.3 37.9062 1243.81 37.9062C1244.93 37.9062 1245.46 37.3054 1245.69 36.8239H1245.77V38.0639C1245.77 39.027 1245.13 39.4233 1244.25 39.4233C1243.33 39.4233 1242.92 38.9844 1242.73 38.6009L1241.34 38.9375C1241.62 39.8537 1242.56 40.5909 1244.23 40.5909ZM1244.24 36.696C1243.22 36.696 1242.69 35.9034 1242.69 34.6974C1242.69 33.5085 1243.21 32.6349 1244.24 32.6349C1245.23 32.6349 1245.78 33.4574 1245.78 34.6974C1245.78 35.946 1245.23 36.696 1244.24 36.696ZM1251.86 38H1253.4V31.4545H1251.86V38ZM1252.63 30.5256C1253.12 30.5256 1253.53 30.1506 1253.53 29.6903C1253.53 29.2259 1253.12 28.8509 1252.63 28.8509C1252.14 28.8509 1251.74 29.2259 1251.74 29.6903C1251.74 30.1506 1252.14 30.5256 1252.63 30.5256ZM1256.53 34.1648C1256.53 33.2188 1257.1 32.6733 1257.92 32.6733C1258.71 32.6733 1259.19 33.1974 1259.19 34.071V38H1260.73V33.8324C1260.74 32.2642 1259.84 31.3693 1258.49 31.3693C1257.51 31.3693 1256.84 31.8381 1256.54 32.5668H1256.46V31.4545H1254.99V38H1256.53V34.1648Z" fill="white"/>
<path d="M1061.01 31.4545H1062.03C1061.99 30.1378 1060.77 29.1534 1059.08 29.1534C1057.41 29.1534 1056.1 30.125 1056.1 31.5909C1056.1 32.767 1056.95 33.4659 1058.32 33.858L1059.39 34.1648C1060.31 34.4205 1061.13 34.7443 1061.13 35.6136C1061.13 36.5682 1060.21 37.1989 1059 37.1989C1057.96 37.1989 1057.04 36.7386 1056.95 35.75H1055.86C1055.96 37.1818 1057.12 38.1534 1059 38.1534C1061.01 38.1534 1062.15 37.0455 1062.15 35.6307C1062.15 33.9943 1060.6 33.4659 1059.7 33.2273L1058.81 32.9886C1058.16 32.8182 1057.12 32.4773 1057.12 31.5398C1057.12 30.7045 1057.89 30.0909 1059.05 30.0909C1060.11 30.0909 1060.91 30.5938 1061.01 31.4545ZM1066.5 38.1364C1067.83 38.1364 1068.8 37.4716 1069.1 36.483L1068.13 36.2102C1067.88 36.892 1067.29 37.233 1066.5 37.233C1065.32 37.233 1064.5 36.4702 1064.46 35.0682H1069.21V34.642C1069.21 32.2045 1067.76 31.3693 1066.39 31.3693C1064.62 31.3693 1063.45 32.767 1063.45 34.7784C1063.45 36.7898 1064.6 38.1364 1066.5 38.1364ZM1064.46 34.1989C1064.52 33.1804 1065.24 32.2727 1066.39 32.2727C1067.49 32.2727 1068.18 33.0909 1068.18 34.1989H1064.46ZM1072.66 38.1534C1073.81 38.1534 1074.4 37.5398 1074.61 37.1136H1074.66V38H1075.66V33.6875C1075.66 31.608 1074.08 31.3693 1073.24 31.3693C1072.25 31.3693 1071.13 31.7102 1070.62 32.9034L1071.57 33.2443C1071.79 32.767 1072.32 32.2557 1073.28 32.2557C1074.2 32.2557 1074.66 32.7457 1074.66 33.5852V33.6193C1074.66 34.1051 1074.16 34.0625 1072.97 34.2159C1071.76 34.3736 1070.43 34.642 1070.43 36.142C1070.43 37.4205 1071.42 38.1534 1072.66 38.1534ZM1072.82 37.25C1072.02 37.25 1071.44 36.892 1071.44 36.1932C1071.44 35.4261 1072.13 35.1875 1072.92 35.0852C1073.34 35.0341 1074.49 34.9148 1074.66 34.7102V35.6307C1074.66 36.4489 1074.01 37.25 1072.82 37.25ZM1077.5 38H1078.5V33.858C1078.5 32.9716 1079.2 32.3239 1080.16 32.3239C1080.43 32.3239 1080.7 32.375 1080.77 32.392V31.3693C1080.66 31.3608 1080.39 31.3523 1080.24 31.3523C1079.46 31.3523 1078.78 31.7955 1078.54 32.4432H1078.47V31.4545H1077.5V38ZM1084.42 38.1364C1085.87 38.1364 1086.83 37.25 1087 36.0909H1085.99C1085.8 36.8068 1085.21 37.233 1084.42 37.233C1083.23 37.233 1082.46 36.2443 1082.46 34.7273C1082.46 33.2443 1083.25 32.2727 1084.42 32.2727C1085.31 32.2727 1085.84 32.8182 1085.99 33.4148H1087C1086.83 32.1875 1085.79 31.3693 1084.41 31.3693C1082.63 31.3693 1081.46 32.767 1081.46 34.7614C1081.46 36.7216 1082.58 38.1364 1084.42 38.1364ZM1089.47 34.0625C1089.47 32.9205 1090.2 32.2727 1091.19 32.2727C1092.14 32.2727 1092.71 32.8693 1092.71 33.9091V38H1093.72V33.8409C1093.72 32.1577 1092.82 31.3693 1091.48 31.3693C1090.45 31.3693 1089.87 31.7997 1089.56 32.4773H1089.47V29.2727H1088.47V38H1089.47V34.0625ZM1099.07 38H1100.13V34.0966H1104.78V38H1105.84V29.2727H1104.78V33.1591H1100.13V29.2727H1099.07V38ZM1109.74 38.1534C1110.88 38.1534 1111.48 37.5398 1111.68 37.1136H1111.74V38H1112.74V33.6875C1112.74 31.608 1111.16 31.3693 1110.32 31.3693C1109.33 31.3693 1108.21 31.7102 1107.7 32.9034L1108.65 33.2443C1108.87 32.767 1109.4 32.2557 1110.35 32.2557C1111.28 32.2557 1111.74 32.7457 1111.74 33.5852V33.6193C1111.74 34.1051 1111.24 34.0625 1110.05 34.2159C1108.83 34.3736 1107.51 34.642 1107.51 36.142C1107.51 37.4205 1108.5 38.1534 1109.74 38.1534ZM1109.89 37.25C1109.09 37.25 1108.51 36.892 1108.51 36.1932C1108.51 35.4261 1109.21 35.1875 1110 35.0852C1110.42 35.0341 1111.56 34.9148 1111.74 34.7102V35.6307C1111.74 36.4489 1111.09 37.25 1109.89 37.25ZM1114.58 38H1115.58V33.858C1115.58 32.9716 1116.28 32.3239 1117.24 32.3239C1117.5 32.3239 1117.78 32.375 1117.85 32.392V31.3693C1117.73 31.3608 1117.47 31.3523 1117.32 31.3523C1116.54 31.3523 1115.86 31.7955 1115.62 32.4432H1115.55V31.4545H1114.58V38ZM1121.59 38.1364C1122.92 38.1364 1123.89 37.4716 1124.19 36.483L1123.22 36.2102C1122.97 36.892 1122.38 37.233 1121.59 37.233C1120.41 37.233 1119.59 36.4702 1119.55 35.0682H1124.3V34.642C1124.3 32.2045 1122.85 31.3693 1121.48 31.3693C1119.71 31.3693 1118.54 32.767 1118.54 34.7784C1118.54 36.7898 1119.69 38.1364 1121.59 38.1364ZM1119.55 34.1989C1119.61 33.1804 1120.33 32.2727 1121.48 32.2727C1122.58 32.2727 1123.27 33.0909 1123.27 34.1989H1119.55ZM1126.56 38.0682C1126.98 38.0682 1127.33 37.723 1127.33 37.3011C1127.33 36.8793 1126.98 36.5341 1126.56 36.5341C1126.14 36.5341 1125.79 36.8793 1125.79 37.3011C1125.79 37.723 1126.14 38.0682 1126.56 38.0682ZM1129.86 38.0682C1130.29 38.0682 1130.63 37.723 1130.63 37.3011C1130.63 36.8793 1130.29 36.5341 1129.86 36.5341C1129.44 36.5341 1129.1 36.8793 1129.1 37.3011C1129.1 37.723 1129.44 38.0682 1129.86 38.0682ZM1133.17 38.0682C1133.59 38.0682 1133.94 37.723 1133.94 37.3011C1133.94 36.8793 1133.59 36.5341 1133.17 36.5341C1132.75 36.5341 1132.4 36.8793 1132.4 37.3011C1132.4 37.723 1132.75 38.0682 1133.17 38.0682Z" fill="#686868"/>
<path d="M1040.44 37.375C1042.61 37.375 1044.38 35.6121 1044.38 33.4375C1044.38 31.2629 1042.61 29.5 1040.44 29.5C1038.26 29.5 1036.5 31.2629 1036.5 33.4375C1036.5 35.6121 1038.26 37.375 1040.44 37.375Z" stroke="#2B2B39" stroke-linecap="round" stroke-linejoin="round"/>
<path d="M1043.22 36.2217L1045.5 38.4998" stroke="#2B2B39" stroke-linecap="round" stroke-linejoin="round"/>
<line x1="1035" y1="58.5" x2="1140" y2="58.5" stroke="#E5E5E5"/>
<line opacity="0.1" y1="76.5" x2="1440" y2="76.5" stroke="#217BF4"/>
<defs>
<filter id="filter0_d_0_481" x="1166" y="0" width="155" height="82" filterUnits="userSpaceOnUse" color-interpolation-filters="sRGB">
<feFlood flood-opacity="0" result="BackgroundImageFix"/>
<feColorMatrix in="SourceAlpha" type="matrix" values="0 0 0 0 0 0 0 0 0 0 0 0 0 0 0 0 0 0 127 0" result="hardAlpha"/>
<feMorphology radius="6" operator="erode" in="SourceAlpha" result="effect1_dropShadow_0_481"/>
<feOffset dy="7"/>
<feGaussianBlur stdDeviation="11"/>
<feColorMatrix type="matrix" values="0 0 0 0 0.129412 0 0 0 0 0.482353 0 0 0 0 0.956863 0 0 0 0.34 0"/>
<feBlend mode="normal" in2="BackgroundImageFix" result="effect1_dropShadow_0_481"/>
<feBlend mode="normal" in="SourceGraphic" in2="effect1_dropShadow_0_481" result="shape"/>
</filter>
</defs>
</svg>
