<svg width="100" height="14" viewBox="0 0 100 14" fill="none" xmlns="http://www.w3.org/2000/svg">
<path d="M26.0092 4.45455H27.032C26.9851 3.13778 25.7706 2.15341 24.0831 2.15341C22.4126 2.15341 21.1001 3.125 21.1001 4.59091C21.1001 5.76705 21.9524 6.46591 23.3161 6.85795L24.3899 7.16477C25.3104 7.42045 26.1286 7.74432 26.1286 8.61364C26.1286 9.56818 25.2081 10.1989 23.9979 10.1989C22.9581 10.1989 22.0376 9.73864 21.9524 8.75H20.8615C20.9638 10.1818 22.1229 11.1534 23.9979 11.1534C26.0092 11.1534 27.1513 10.0455 27.1513 8.63068C27.1513 6.99432 25.6001 6.46591 24.6967 6.22727L23.8104 5.98864C23.1626 5.81818 22.1229 5.47727 22.1229 4.53977C22.1229 3.70455 22.8899 3.09091 24.049 3.09091C25.1058 3.09091 25.907 3.59375 26.0092 4.45455ZM31.4968 11.1364C32.8263 11.1364 33.7979 10.4716 34.1048 9.48295L33.1332 9.21023C32.8775 9.89205 32.2852 10.233 31.4968 10.233C30.3164 10.233 29.5025 9.47017 29.4556 8.06818H34.207V7.64205C34.207 5.20455 32.7582 4.36932 31.3945 4.36932C29.6218 4.36932 28.4457 5.76705 28.4457 7.77841C28.4457 9.78977 29.6048 11.1364 31.4968 11.1364ZM29.4556 7.19886C29.5238 6.1804 30.244 5.27273 31.3945 5.27273C32.4854 5.27273 33.1843 6.09091 33.1843 7.19886H29.4556ZM37.663 11.1534C38.805 11.1534 39.4016 10.5398 39.6062 10.1136H39.6573V11H40.663V6.6875C40.663 4.60795 39.0778 4.36932 38.2425 4.36932C37.2539 4.36932 36.1289 4.71023 35.6175 5.90341L36.5721 6.24432C36.7937 5.76705 37.3178 5.25568 38.2766 5.25568C39.2013 5.25568 39.6573 5.74574 39.6573 6.58523V6.61932C39.6573 7.10511 39.163 7.0625 37.9698 7.21591C36.7553 7.37358 35.43 7.64205 35.43 9.14205C35.43 10.4205 36.4187 11.1534 37.663 11.1534ZM37.8164 10.25C37.0153 10.25 36.4357 9.89205 36.4357 9.19318C36.4357 8.42614 37.1346 8.1875 37.9187 8.08523C38.3448 8.03409 39.4869 7.91477 39.6573 7.71023V8.63068C39.6573 9.44886 39.0096 10.25 37.8164 10.25ZM42.4986 11H43.5043V6.85795C43.5043 5.97159 44.2031 5.32386 45.1577 5.32386C45.4261 5.32386 45.7031 5.375 45.7713 5.39205V4.36932C45.6562 4.3608 45.392 4.35227 45.2429 4.35227C44.4588 4.35227 43.777 4.79545 43.5384 5.44318H43.4702V4.45455H42.4986V11ZM49.4233 11.1364C50.8722 11.1364 51.8267 10.25 51.9972 9.09091H50.9915C50.804 9.80682 50.2074 10.233 49.4233 10.233C48.2301 10.233 47.4631 9.24432 47.4631 7.72727C47.4631 6.24432 48.2472 5.27273 49.4233 5.27273C50.3097 5.27273 50.8381 5.81818 50.9915 6.41477H51.9972C51.8267 5.1875 50.7869 4.36932 49.4062 4.36932C47.6335 4.36932 46.4574 5.76705 46.4574 7.76136C46.4574 9.72159 47.5824 11.1364 49.4233 11.1364ZM54.473 7.0625C54.473 5.92045 55.2017 5.27273 56.1946 5.27273C57.1406 5.27273 57.7116 5.86932 57.7116 6.90909V11H58.7173V6.84091C58.7173 5.15767 57.8224 4.36932 56.4844 4.36932C55.4531 4.36932 54.8651 4.79972 54.5582 5.47727H54.473V2.27273H53.4673V11H54.473V7.0625ZM64.0685 11H65.1254V7.09659H69.7788V11H70.8356V2.27273H69.7788V6.15909H65.1254V2.27273H64.0685V11ZM74.7411 11.1534C75.8832 11.1534 76.4798 10.5398 76.6843 10.1136H76.7354V11H77.7411V6.6875C77.7411 4.60795 76.1559 4.36932 75.3207 4.36932C74.332 4.36932 73.207 4.71023 72.6957 5.90341L73.6502 6.24432C73.8718 5.76705 74.396 5.25568 75.3548 5.25568C76.2795 5.25568 76.7354 5.74574 76.7354 6.58523V6.61932C76.7354 7.10511 76.2411 7.0625 75.0479 7.21591C73.8335 7.37358 72.5082 7.64205 72.5082 9.14205C72.5082 10.4205 73.4968 11.1534 74.7411 11.1534ZM74.8945 10.25C74.0934 10.25 73.5138 9.89205 73.5138 9.19318C73.5138 8.42614 74.2127 8.1875 74.9968 8.08523C75.4229 8.03409 76.565 7.91477 76.7354 7.71023V8.63068C76.7354 9.44886 76.0877 10.25 74.8945 10.25ZM79.5767 11H80.5824V6.85795C80.5824 5.97159 81.2812 5.32386 82.2358 5.32386C82.5043 5.32386 82.7812 5.375 82.8494 5.39205V4.36932C82.7344 4.3608 82.4702 4.35227 82.321 4.35227C81.5369 4.35227 80.8551 4.79545 80.6165 5.44318H80.5483V4.45455H79.5767V11ZM86.5866 11.1364C87.9162 11.1364 88.8878 10.4716 89.1946 9.48295L88.223 9.21023C87.9673 9.89205 87.375 10.233 86.5866 10.233C85.4062 10.233 84.5923 9.47017 84.5455 8.06818H89.2969V7.64205C89.2969 5.20455 87.848 4.36932 86.4844 4.36932C84.7116 4.36932 83.5355 5.76705 83.5355 7.77841C83.5355 9.78977 84.6946 11.1364 86.5866 11.1364ZM84.5455 7.19886C84.6136 6.1804 85.3338 5.27273 86.4844 5.27273C87.5753 5.27273 88.2741 6.09091 88.2741 7.19886H84.5455ZM91.5597 11.0682C91.9815 11.0682 92.3267 10.723 92.3267 10.3011C92.3267 9.87926 91.9815 9.53409 91.5597 9.53409C91.1378 9.53409 90.7926 9.87926 90.7926 10.3011C90.7926 10.723 91.1378 11.0682 91.5597 11.0682ZM94.8643 11.0682C95.2862 11.0682 95.6314 10.723 95.6314 10.3011C95.6314 9.87926 95.2862 9.53409 94.8643 9.53409C94.4425 9.53409 94.0973 9.87926 94.0973 10.3011C94.0973 10.723 94.4425 11.0682 94.8643 11.0682ZM98.169 11.0682C98.5909 11.0682 98.9361 10.723 98.9361 10.3011C98.9361 9.87926 98.5909 9.53409 98.169 9.53409C97.7472 9.53409 97.402 9.87926 97.402 10.3011C97.402 10.723 97.7472 11.0682 98.169 11.0682Z" fill="#686868"/>
<path d="M5.4375 10.375C7.61212 10.375 9.375 8.61212 9.375 6.4375C9.375 4.26288 7.61212 2.5 5.4375 2.5C3.26288 2.5 1.5 4.26288 1.5 6.4375C1.5 8.61212 3.26288 10.375 5.4375 10.375Z" stroke="#2B2B39" stroke-linecap="round" stroke-linejoin="round"/>
<path d="M8.22266 9.22168L10.5008 11.4998" stroke="#2B2B39" stroke-linecap="round" stroke-linejoin="round"/>
</svg>
