<svg width="29" height="28" viewBox="0 0 29 28" fill="none" xmlns="http://www.w3.org/2000/svg">
<path d="M28.0013 10.9998C28.0013 20.3887 20.3901 27.9998 11.0013 27.9998C7.06093 27.9998 3.43369 26.6592 0.550781 24.4093L18.7833 6.17677C19.6535 7.57735 20.1551 9.22916 20.1551 10.9998C20.1551 15.1925 17.3363 18.7269 13.4905 19.8111C12.9167 19.0652 12.0151 18.5844 11.0013 18.5844C9.26795 18.5844 7.86281 19.9896 7.86281 21.7229C7.86281 23.4562 9.26795 24.8613 11.0013 24.8613C12.2989 24.8613 13.4126 24.0738 13.8905 22.9507C19.2853 21.6511 23.2936 16.7935 23.2936 10.9998C23.2936 8.3617 22.4612 5.91595 21.0465 3.91356L24.4107 0.549316C26.6607 3.43223 28.0013 7.05946 28.0013 10.9998Z" fill="#FFAF2E"/>
</svg>
